<svg aria-hidden="true" style="position:absolute;width:0;height:0;overflow:hidden" xmlns="http://www.w3.org/2000/svg">
  <defs>

      <symbol id="icon-book" viewBox="0 0 18 20">
    <path d="M3 20h15v-2H3.012C2.55 17.988 2 17.805 2 17s0.55-0.988 1.012-1H18V2c0-1.103-0.897-2-2-2H3C1.794 0 0 0.799 0 3v14c0 2.201 1.794 3 3 3zM2 3c0-0.805 0.55-0.988 1-1h13v12H2z" />
    <path d="M5 4h9v2H5z" />
  </symbol>

 <symbol id="icon-logo" viewBox="0 0 160 68">
<svg  fill="none">
<path fill-rule="evenodd" clip-rule="evenodd" d="M35.23 21.5065L35.2559 21.5279L35.5173 21.7455L35.7272 21.9207L36.6565 22.6938L36.6582 44.2894C31.7086 48.3764 26.728 52.4259 21.7175 56.4371C21.3996 56.4055 13.1468 49.618 8.95459 46.17L8.83752 46.0737C7.7631 45.1902 6.97338 44.5407 6.68134 44.3049L6.66666 22.7056L21.5922 10.4762C22.0787 10.5451 31.3963 18.3107 35.23 21.5065ZM28.7848 25.9186L28.7679 25.8915L28.7654 25.8867L28.742 25.8492C26.2891 21.8802 21.9923 14.9283 21.6246 14.6644L12.9641 28.4636L12.9835 38.0429L14.725 40.9005C15.4875 41.0091 16.2565 41.1333 17.028 41.2579C18.5932 41.5108 20.1687 41.7654 21.7227 41.8946L22.6623 41.7544L23.7955 41.5834C25.3961 41.3414 26.9971 41.0993 28.6008 40.8849L30.3478 38.1716L30.3469 28.4364C30.1387 28.1096 29.5564 27.1672 28.7848 25.9186ZM30.9941 29.5952C31.6037 30.357 32.1273 31.2913 32.6344 32.1964C32.7809 32.4571 32.9256 32.7153 33.0708 32.9663C33.1429 33.0912 33.2151 33.2142 33.2876 33.3349L32.9969 33.8096L32.6949 34.3004C32.4314 34.7266 32.1666 35.1518 31.8996 35.576L30.9777 37.0717C30.9768 36.3526 30.9708 35.6321 30.9647 34.911C30.95 33.1381 30.9358 31.362 30.9941 29.5952ZM24.0841 13.1734C23.3678 12.5443 22.4891 11.7729 21.962 11.5481L21.978 12.257C21.991 12.8137 22.0039 13.3706 22.0087 13.9272C24.7597 18.3669 27.5337 22.7925 30.3305 27.2037C30.3301 27.068 30.324 26.8557 30.3167 26.5954V26.5821V26.5683V26.5612V26.5523C30.2834 25.3094 30.223 23.0491 30.5401 22.716C30.5483 22.7069 30.5573 22.6986 30.5673 22.6905L30.591 22.6712L30.6148 22.6519L30.8943 22.7741C31.1099 23.7563 31.058 25.2884 31.0118 26.6535L31.0109 26.6734L31.0084 26.7568C30.9898 27.3255 30.9725 27.8616 30.9777 28.3123C31.3453 28.9275 31.7225 29.5391 32.1 30.151C32.7558 31.2139 33.4121 32.2778 34.0203 33.3638L30.982 38.2425L30.9893 41.3692V43.7768L36.0283 43.7795L36.0175 23.0004C32.3243 19.8932 28.5947 16.8303 24.8284 13.8124L24.7122 13.7173L24.6055 13.6275C24.4491 13.4943 24.2724 13.3388 24.0841 13.1734ZM21.2367 11.5874L21.3088 11.6493C21.4544 12.0816 21.4138 12.749 21.3788 13.3269C21.3659 13.539 21.3538 13.739 21.3516 13.911L12.9459 27.3255C12.9481 27.1181 12.9542 26.8991 12.9624 26.6724L12.9701 26.4645L12.987 26.0582C13.0298 25.0444 13.0755 23.9556 12.9628 23.1031C12.9313 22.8643 12.86 22.778 12.6751 22.6382L12.4807 22.6751C12.1869 23.1321 12.2711 25.9608 12.3169 27.5019L12.3303 27.9785C12.3342 28.1182 12.3368 28.2345 12.3377 28.3217C11.3289 29.9705 10.334 31.6274 9.35204 33.2921L12.3437 38.1982L12.3312 41.0037L12.3213 43.7805L7.29739 43.7731L7.3164 23.0115C10.3094 20.4297 13.3957 17.9386 16.4794 15.4497C18.0705 14.1657 19.6607 12.8823 21.2367 11.5874ZM18.0117 42.0316C17.0665 41.8631 16.1221 41.6947 15.1825 41.6186L15.9091 42.7853C17.8463 45.8941 19.7881 49.0116 21.6406 52.1673C22.5798 50.6524 23.5099 49.132 24.4292 47.6061C24.8453 46.9354 25.2578 46.2621 25.6704 45.5887C26.4874 44.2547 27.3052 42.9204 28.1497 41.6058C27.6235 41.6803 26.9976 41.7883 26.3314 41.9033C24.6781 42.1886 22.7759 42.5169 21.5326 42.483C20.3649 42.4511 19.1881 42.2413 18.0117 42.0316ZM12.9507 41.2815L14.3737 41.487C15.3276 43.0693 16.2979 44.6418 17.2682 46.2144L17.2721 46.2213L17.298 46.2636C18.658 48.4687 20.018 50.674 21.3335 52.9065C21.3326 53.2542 21.3335 53.6021 21.3365 53.95C21.3404 54.4486 21.3477 54.9473 21.3589 55.4457L18.5224 53.124L7.81494 44.3899C9.01637 44.4066 10.2191 44.403 11.4214 44.3994C11.929 44.3978 12.4366 44.3963 12.9438 44.3963C12.9719 43.3592 12.9529 42.3194 12.9507 41.2815ZM29.9944 41.3285L29.9413 41.3335L28.9563 41.4852L21.9901 52.8225L21.9629 55.4375C22.4118 55.0716 22.861 54.7069 23.3116 54.3433C23.8754 53.888 24.4409 53.4345 25.0073 52.9824C28.5325 50.1535 32.0292 47.29 35.4974 44.3908L30.3543 44.3963C30.3573 44.1667 30.3668 43.9272 30.3768 43.683L30.378 43.6619C30.4096 42.9035 30.4429 42.1013 30.2912 41.4103C30.156 41.3088 30.1387 41.3109 30.0346 41.3237L29.9944 41.3285ZM12.342 36.7619L12.3398 36.9949L11.5955 35.7789C11.2792 35.1975 10.9259 34.6275 10.5738 34.06C10.4169 33.8069 10.2606 33.5543 10.1076 33.3015C10.5422 32.4858 11.0196 31.688 11.4965 30.8914L11.8612 30.2815C11.9813 30.079 12.1009 29.8764 12.2189 29.6733C12.4681 30.0526 12.3938 33.968 12.3558 35.969C12.3498 36.2901 12.3446 36.562 12.342 36.7619ZM29.6713 40.6408L29.8004 40.4102C30.0277 40.0029 30.2562 39.5936 30.5509 39.2309C30.5772 39.6056 30.5496 40.1157 30.4822 40.4225C30.1128 40.558 29.9629 40.6061 29.6713 40.6408ZM12.9879 39.359C13.3382 39.7903 13.5944 40.2874 13.867 40.7689C13.7668 40.7569 13.721 40.7532 13.676 40.7446C13.5905 40.7282 13.5084 40.6939 13.0561 40.5505C12.9879 40.1157 12.9611 39.7337 12.9879 39.359Z" fill="black"/>
<path d="M28.7679 25.8915L28.7848 25.9186C29.5564 27.1672 30.1387 28.1096 30.3469 28.4364L30.3478 38.1716L28.6008 40.8849C26.9971 41.0993 25.3961 41.3414 23.7955 41.5834L22.6623 41.7544L21.7227 41.8946C20.1687 41.7654 18.5932 41.5108 17.028 41.2579C16.2565 41.1333 15.4875 41.0091 14.725 40.9005L12.9835 38.0429L12.9641 28.4636L21.6246 14.6644M28.7679 25.8915L28.7653 25.8867L28.742 25.8492C26.2891 21.8802 21.9923 14.9283 21.6246 14.6644M28.7679 25.8915C28.1553 24.8999 27.4248 23.7178 26.6684 22.4987C24.402 18.8473 21.9011 14.863 21.6246 14.6644M30.3305 27.2037C27.5337 22.7925 24.7597 18.3669 22.0087 13.9272C22.0039 13.3706 21.991 12.8137 21.978 12.257L21.962 11.5481C22.4891 11.7729 23.3678 12.5443 24.0841 13.1734C24.2724 13.3388 24.4491 13.4943 24.6055 13.6275L24.7122 13.7173L24.8284 13.8124C28.5947 16.8303 32.3243 19.8932 36.0175 23.0004L36.0283 43.7795L30.9893 43.7768V41.3692L30.982 38.2425L34.0203 33.3638C33.4121 32.2778 32.7558 31.2139 32.1 30.151C31.7225 29.5391 31.3453 28.9275 30.9777 28.3123M30.3305 27.2037C30.3301 27.068 30.324 26.8557 30.3167 26.5954M30.3305 27.2037C30.3305 27.2015 30.3305 27.1994 30.3305 27.1972C30.3305 27.0613 30.324 26.8516 30.3167 26.5954M30.3167 26.5954V26.5821V26.5683V26.5612V26.5523C30.2834 25.3094 30.223 23.0491 30.5401 22.716C30.5483 22.7069 30.5573 22.6986 30.5673 22.6905L30.591 22.6712L30.6148 22.6519L30.8943 22.7741C31.1099 23.7563 31.058 25.2884 31.0118 26.6535M31.0118 26.6535L31.0109 26.6734L31.0084 26.7568C30.9898 27.3255 30.9725 27.8616 30.9777 28.3123M31.0118 26.6535C31.0088 26.7425 31.0062 26.8322 31.0032 26.9196C30.9868 27.4276 30.9729 27.9049 30.9777 28.3123M13.676 40.7446C13.721 40.7532 13.7668 40.7569 13.867 40.7689C13.5944 40.2874 13.3382 39.7903 12.9879 39.359C12.9611 39.7337 12.9879 40.1157 13.0561 40.5505M13.676 40.7446C13.5905 40.7282 13.5084 40.6939 13.0561 40.5505M13.676 40.7446C13.5914 40.7284 13.5119 40.6952 13.073 40.5558C13.0673 40.5541 13.0617 40.5523 13.0561 40.5505M35.23 21.5065L35.2559 21.5279L35.5173 21.7455L35.7272 21.9207L36.6565 22.6938L36.6582 44.2894C31.7086 48.3764 26.728 52.4259 21.7175 56.4371C21.3996 56.4055 13.1468 49.618 8.95459 46.17L8.83752 46.0737C7.7631 45.1902 6.97338 44.5407 6.68134 44.3049L6.66666 22.7056L21.5922 10.4762C22.0787 10.5451 31.3963 18.3107 35.23 21.5065ZM30.9941 29.5952C31.6037 30.357 32.1273 31.2913 32.6344 32.1964C32.7809 32.4571 32.9256 32.7153 33.0708 32.9663C33.1429 33.0912 33.2151 33.2142 33.2876 33.3349L32.9969 33.8096L32.6949 34.3004C32.4314 34.7266 32.1666 35.1518 31.8996 35.576L30.9777 37.0717C30.9768 36.3526 30.9708 35.6321 30.9647 34.911C30.95 33.1381 30.9358 31.362 30.9941 29.5952ZM21.2367 11.5874L21.3088 11.6493C21.4544 12.0816 21.4138 12.749 21.3788 13.3269C21.3659 13.539 21.3538 13.739 21.3516 13.911L12.9459 27.3255C12.9481 27.1181 12.9542 26.8991 12.9624 26.6724L12.9701 26.4645L12.987 26.0582C13.0298 25.0444 13.0755 23.9556 12.9628 23.1031C12.9313 22.8643 12.86 22.778 12.6751 22.6382L12.4807 22.6751C12.1869 23.1321 12.2711 25.9608 12.3169 27.5019L12.3303 27.9785C12.3342 28.1182 12.3368 28.2345 12.3377 28.3217C11.3289 29.9705 10.334 31.6274 9.35204 33.2921L12.3437 38.1982L12.3312 41.0037L12.3213 43.7805L7.29739 43.7731L7.3164 23.0115C10.3094 20.4297 13.3957 17.9386 16.4794 15.4497C18.0705 14.1657 19.6607 12.8823 21.2367 11.5874ZM18.0117 42.0316C17.0665 41.8631 16.1221 41.6947 15.1825 41.6186L15.9091 42.7853C17.8463 45.8941 19.7881 49.0116 21.6406 52.1673C22.5798 50.6524 23.5099 49.132 24.4292 47.6061C24.8453 46.9354 25.2578 46.2621 25.6704 45.5887C26.4874 44.2547 27.3052 42.9204 28.1497 41.6058C27.6235 41.6803 26.9976 41.7883 26.3314 41.9033C24.6781 42.1886 22.7759 42.5169 21.5326 42.483C20.3649 42.4511 19.1881 42.2413 18.0117 42.0316ZM12.9507 41.2815L14.3737 41.487C15.3276 43.0693 16.2979 44.6418 17.2682 46.2144L17.2721 46.2213L17.298 46.2636C18.658 48.4687 20.018 50.674 21.3335 52.9065C21.3326 53.2542 21.3335 53.6021 21.3365 53.95C21.3404 54.4486 21.3477 54.9473 21.3589 55.4457L18.5224 53.124L7.81494 44.3899C9.01637 44.4066 10.2191 44.403 11.4214 44.3994C11.929 44.3978 12.4366 44.3963 12.9438 44.3963C12.9719 43.3592 12.9529 42.3194 12.9507 41.2815ZM29.9944 41.3285L29.9413 41.3335L28.9563 41.4852L21.9901 52.8225L21.9629 55.4375C22.4118 55.0716 22.861 54.7069 23.3116 54.3433C23.8754 53.888 24.4409 53.4345 25.0073 52.9824C28.5325 50.1535 32.0292 47.29 35.4974 44.3908L30.3543 44.3963C30.3573 44.1667 30.3668 43.9272 30.3768 43.683L30.378 43.6619C30.4096 42.9035 30.4429 42.1013 30.2912 41.4103C30.156 41.3088 30.1387 41.3109 30.0346 41.3237L29.9944 41.3285ZM12.342 36.7619L12.3398 36.9949L11.5955 35.7789C11.2792 35.1975 10.9259 34.6275 10.5738 34.06C10.4169 33.8069 10.2606 33.5543 10.1076 33.3015C10.5422 32.4858 11.0196 31.688 11.4965 30.8914L11.8612 30.2815C11.9813 30.079 12.1009 29.8764 12.2189 29.6733C12.4681 30.0526 12.3938 33.968 12.3558 35.969C12.3498 36.2901 12.3446 36.562 12.342 36.7619ZM29.6713 40.6408L29.8004 40.4102C30.0277 40.0029 30.2562 39.5936 30.5509 39.2309C30.5772 39.6056 30.5496 40.1157 30.4822 40.4225C30.1128 40.558 29.9629 40.6061 29.6713 40.6408Z" stroke="black" stroke-width="0.380952"/>
<path d="M106.133 53.3015V51.8721H107.584C108.082 51.8721 108.508 51.8081 108.864 51.6801C109.219 51.5663 109.518 51.3601 109.76 51.0615C110.002 50.7628 110.208 50.3503 110.379 49.8241L114.176 37.6215H115.733L111.765 50.2721C111.538 50.9975 111.225 51.5806 110.827 52.0215C110.428 52.4766 109.952 52.8037 109.397 53.0028C108.843 53.2019 108.21 53.3015 107.499 53.3015H106.133ZM109.803 48.6295V47.2855H111.829V48.6295H109.803ZM109.611 48.6295L105.515 37.6215H107.157L111.104 48.6295H109.611Z" fill="black"/>
<path d="M98.3698 48.9067V37.6213H99.6498V42.336H99.5218C99.5218 40.6862 99.8845 39.4702 100.61 38.688C101.335 37.8916 102.473 37.4933 104.023 37.4933H104.386V38.944H103.724C102.501 38.944 101.57 39.264 100.93 39.904C100.29 40.5298 99.9698 41.4542 99.9698 42.6773V48.9067H98.3698Z" fill="black"/>
<path d="M92.8361 48.9068V33.3334H94.4361V48.9068H92.8361ZM91.1935 34.6348V33.3334H94.4361V34.6348H91.1935Z" fill="black"/>
<path d="M84.6576 49.2694C83.6905 49.2694 82.8514 49.1058 82.1402 48.7787C81.4291 48.4374 80.846 47.9894 80.3909 47.4347C79.9358 46.8658 79.5945 46.2329 79.3669 45.536C79.1536 44.8391 79.0469 44.1209 79.0469 43.3814V43.0827C79.0469 42.3574 79.1536 41.6463 79.3669 40.9494C79.5945 40.2525 79.9358 39.6267 80.3909 39.072C80.846 38.5174 81.4149 38.0765 82.0976 37.7494C82.7945 37.408 83.6051 37.2374 84.5296 37.2374C85.71 37.2374 86.6914 37.5005 87.4736 38.0267C88.27 38.5529 88.8674 39.2285 89.2656 40.0534C89.6638 40.864 89.8629 41.7387 89.8629 42.6774V43.5094H79.7722V42.272H88.7536L88.3482 42.8907C88.3482 42.0516 88.1989 41.3191 87.9002 40.6934C87.6158 40.0534 87.1891 39.5556 86.6202 39.2C86.0656 38.8303 85.3687 38.6454 84.5296 38.6454C83.6478 38.6454 82.9154 38.8516 82.3322 39.264C81.7491 39.6765 81.3082 40.224 81.0096 40.9067C80.7251 41.5894 80.5829 42.3645 80.5829 43.232C80.5829 44.0854 80.7251 44.8676 81.0096 45.5787C81.3082 46.2756 81.7562 46.8303 82.3536 47.2427C82.9651 47.6551 83.7331 47.8614 84.6576 47.8614C85.6389 47.8614 86.4354 47.6409 87.0469 47.2C87.6585 46.7449 88.0354 46.2116 88.1776 45.6H89.6709C89.5287 46.3538 89.23 47.008 88.7749 47.5627C88.3198 48.1031 87.7438 48.5227 87.0469 48.8214C86.35 49.12 85.5536 49.2694 84.6576 49.2694Z" fill="black"/>
<path d="M55.5881 50.1823C54.621 50.1823 53.7819 50.0187 53.0707 49.6916C52.3596 49.3503 51.7765 48.9023 51.3214 48.3476C50.8663 47.7787 50.525 47.1458 50.2974 46.4489C50.0841 45.752 49.9774 45.0338 49.9774 44.2943V43.9956C49.9774 43.2703 50.0841 42.5592 50.2974 41.8623C50.525 41.1654 50.8663 40.5396 51.3214 39.9849C51.7765 39.4303 52.3454 38.9894 53.0281 38.6623C53.725 38.3209 54.5356 38.1503 55.4601 38.1503C56.6405 38.1503 57.6219 38.4134 58.4041 38.9396C59.2005 39.4658 59.7979 40.1414 60.1961 40.9663C60.5943 41.7769 60.7934 42.6516 60.7934 43.5903V44.4223H50.7028V43.1849H59.6841L59.2788 43.8036C59.2788 42.9645 59.1294 42.232 58.8308 41.6063C58.5463 40.9663 58.1196 40.4685 57.5508 40.1129C56.9961 39.7432 56.2992 39.5583 55.4601 39.5583C54.5783 39.5583 53.8459 39.7645 53.2628 40.1769C52.6796 40.5894 52.2388 41.1369 51.9401 41.8196C51.6556 42.5023 51.5134 43.2774 51.5134 44.1449C51.5134 44.9983 51.6556 45.7805 51.9401 46.4916C52.2388 47.1885 52.6868 47.7432 53.2841 48.1556C53.8956 48.568 54.6636 48.7743 55.5881 48.7743C56.5694 48.7743 57.3659 48.5538 57.9774 48.1129C58.589 47.6578 58.9659 47.1245 59.1081 46.5129H60.6014C60.4592 47.2667 60.1605 47.9209 59.7054 48.4756C59.2503 49.016 58.6743 49.4356 57.9774 49.7343C57.2805 50.0329 56.4841 50.1823 55.5881 50.1823Z" fill="black"/>
<path d="M42.4112 54.1503V52.721H43.6912C44.2458 52.721 44.6654 52.5574 44.9498 52.2303C45.2485 51.9174 45.3978 51.4623 45.3978 50.865V38.5343H46.9338V50.5663C46.9338 51.4481 46.8129 52.1521 46.5712 52.6783C46.3436 53.2045 45.9738 53.5814 45.4618 53.809C44.9498 54.0365 44.2672 54.1503 43.4138 54.1503H42.4112ZM43.5632 39.8143V38.5343H46.9338V39.8143H43.5632ZM45.6965 36.2516C45.3125 36.2516 45.0209 36.1521 44.8218 35.953C44.6369 35.7396 44.5445 35.4765 44.5445 35.1636C44.5445 34.8507 44.6369 34.5947 44.8218 34.3956C45.0209 34.1823 45.3125 34.0756 45.6965 34.0756C46.0805 34.0756 46.3649 34.1823 46.5498 34.3956C46.7347 34.5947 46.8272 34.8507 46.8272 35.1636C46.8272 35.4765 46.7347 35.7396 46.5498 35.953C46.3649 36.1521 46.0805 36.2516 45.6965 36.2516Z" fill="black"/>
<path d="M148.829 32.0059C147.862 32.0059 147.023 31.8424 146.311 31.5153C145.6 31.1739 145.017 30.7259 144.562 30.1713C144.107 29.6024 143.766 28.9695 143.538 28.2726C143.325 27.5757 143.218 26.8575 143.218 26.1179V25.8193C143.218 25.0939 143.325 24.3828 143.538 23.6859C143.766 22.989 144.107 22.3633 144.562 21.8086C145.017 21.2539 145.586 20.8131 146.269 20.4859C146.966 20.1446 147.776 19.9739 148.701 19.9739C149.881 19.9739 150.863 20.237 151.645 20.7633C152.441 21.2895 153.039 21.965 153.437 22.7899C153.835 23.6006 154.034 24.4753 154.034 25.4139V26.2459H143.943V25.0086H152.925L152.519 25.6273C152.519 24.7882 152.37 24.0557 152.071 23.4299C151.787 22.7899 151.36 22.2922 150.791 21.9366C150.237 21.5668 149.54 21.3819 148.701 21.3819C147.819 21.3819 147.087 21.5882 146.503 22.0006C145.92 22.413 145.479 22.9606 145.181 23.6433C144.896 24.3259 144.754 25.101 144.754 25.9686C144.754 26.8219 144.896 27.6042 145.181 28.3153C145.479 29.0122 145.927 29.5668 146.525 29.9793C147.136 30.3917 147.904 30.5979 148.829 30.5979C149.81 30.5979 150.607 30.3775 151.218 29.9366C151.83 29.4815 152.207 28.9482 152.349 28.3366H153.842C153.7 29.0904 153.401 29.7446 152.946 30.2993C152.491 30.8397 151.915 31.2593 151.218 31.5579C150.521 31.8566 149.725 32.0059 148.829 32.0059Z" fill="black"/>
<path d="M134.373 32.0059C133.549 32.0059 132.795 31.8566 132.112 31.5579C131.444 31.2451 130.861 30.8184 130.363 30.2779C129.879 29.7233 129.502 29.0975 129.232 28.4006C128.976 27.6895 128.848 26.9357 128.848 26.1393V25.8406C128.848 25.0726 128.976 24.3402 129.232 23.6433C129.488 22.9322 129.851 22.3064 130.32 21.7659C130.804 21.2113 131.38 20.7775 132.048 20.4646C132.731 20.1375 133.492 19.9739 134.331 19.9739C135.284 19.9739 136.123 20.1802 136.848 20.5926C137.573 21.0051 138.157 21.6024 138.597 22.3846C139.038 23.1526 139.273 24.0984 139.301 25.2219L138.597 23.8993V16.0699H140.197V31.6433H138.917V26.6299H139.429C139.401 27.8104 139.152 28.8059 138.683 29.6166C138.228 30.4131 137.623 31.0104 136.869 31.4086C136.13 31.8068 135.298 32.0059 134.373 32.0059ZM134.587 30.5979C135.355 30.5979 136.045 30.4273 136.656 30.0859C137.282 29.7446 137.773 29.2611 138.128 28.6353C138.484 27.9953 138.661 27.2628 138.661 26.4379V25.4139C138.661 24.6175 138.484 23.9206 138.128 23.3233C137.773 22.7117 137.282 22.2353 136.656 21.8939C136.045 21.5526 135.348 21.3819 134.565 21.3819C133.726 21.3819 132.994 21.5882 132.368 22.0006C131.757 22.3988 131.28 22.9464 130.939 23.6433C130.612 24.3402 130.448 25.1224 130.448 25.9899C130.448 26.8859 130.619 27.6824 130.96 28.3793C131.301 29.0762 131.785 29.6237 132.411 30.0219C133.037 30.4059 133.762 30.5979 134.587 30.5979Z" fill="black"/>
<path d="M124.681 31.6433V28.2513H124.425V24.2406C124.425 23.4015 124.205 22.7615 123.764 22.3206C123.323 21.8655 122.64 21.638 121.716 21.638C121.289 21.638 120.855 21.6451 120.414 21.6593C119.988 21.6735 119.575 21.6949 119.177 21.7233C118.793 21.7375 118.452 21.7589 118.153 21.7873V20.3793C118.466 20.3509 118.786 20.3224 119.113 20.294C119.44 20.2655 119.774 20.2513 120.116 20.2513C120.471 20.2371 120.813 20.23 121.14 20.23C122.292 20.23 123.216 20.3722 123.913 20.6566C124.624 20.9411 125.143 21.3891 125.47 22.0006C125.798 22.598 125.961 23.3944 125.961 24.39V31.6433H124.681ZM120.862 31.942C120.066 31.942 119.362 31.7998 118.75 31.5153C118.139 31.2309 117.662 30.8184 117.321 30.278C116.994 29.7375 116.83 29.0833 116.83 28.3153C116.83 27.5615 117.001 26.9215 117.342 26.3953C117.698 25.8691 118.203 25.4709 118.857 25.2006C119.526 24.9162 120.329 24.774 121.268 24.774H124.574V25.99H121.161C120.265 25.99 119.575 26.2104 119.092 26.6513C118.622 27.078 118.388 27.6398 118.388 28.3366C118.388 29.0478 118.637 29.6166 119.134 30.0433C119.632 30.4558 120.308 30.662 121.161 30.662C121.687 30.662 122.192 30.5695 122.676 30.3846C123.159 30.1855 123.565 29.8584 123.892 29.4033C124.219 28.934 124.397 28.294 124.425 27.4833L124.894 28.1446C124.838 28.9838 124.638 29.6878 124.297 30.2566C123.956 30.8113 123.494 31.2309 122.91 31.5153C122.327 31.7998 121.645 31.942 120.862 31.942Z" fill="black"/>
<path d="M97.5042 31.6434V20.3367H98.7842V25.0941H98.5282C98.5282 24.0558 98.6704 23.1598 98.9549 22.4061C99.2535 21.6523 99.6944 21.0692 100.278 20.6567C100.861 20.2301 101.6 20.0167 102.496 20.0167H102.56C103.456 20.0167 104.196 20.2229 104.779 20.6354C105.362 21.0478 105.796 21.6309 106.08 22.3847C106.365 23.1385 106.507 24.0416 106.507 25.0941H105.995C105.995 24.0558 106.137 23.1598 106.422 22.4061C106.72 21.6523 107.161 21.0692 107.744 20.6567C108.342 20.2301 109.088 20.0167 109.984 20.0167H110.048C110.944 20.0167 111.684 20.2229 112.267 20.6354C112.864 21.0478 113.305 21.6309 113.59 22.3847C113.888 23.1385 114.038 24.0416 114.038 25.0941V31.6434H112.438V24.7314C112.438 23.7358 112.196 22.9465 111.712 22.3634C111.229 21.7803 110.532 21.4887 109.622 21.4887C108.683 21.4887 107.936 21.7945 107.382 22.4061C106.841 23.0034 106.571 23.8141 106.571 24.8381V31.6434H104.971V24.7314C104.971 23.7358 104.729 22.9465 104.246 22.3634C103.762 21.7803 103.065 21.4887 102.155 21.4887C101.216 21.4887 100.47 21.7945 99.9149 22.4061C99.3744 23.0034 99.1042 23.8141 99.1042 24.8381V31.6434H97.5042Z" fill="black"/>
<path d="M87.7635 32.0059C86.9386 32.0059 86.1849 31.8566 85.5022 31.5579C84.8337 31.2451 84.2506 30.8184 83.7529 30.2779C83.2693 29.7233 82.8924 29.0975 82.6222 28.4006C82.3662 27.6895 82.2382 26.9357 82.2382 26.1393V25.8406C82.2382 25.0726 82.3662 24.3402 82.6222 23.6433C82.8782 22.9322 83.2409 22.3064 83.7102 21.7659C84.1937 21.2113 84.7697 20.7775 85.4382 20.4646C86.1209 20.1375 86.8817 19.9739 87.7209 19.9739C88.6737 19.9739 89.5129 20.1802 90.2382 20.5926C90.9635 21.0051 91.5466 21.6024 91.9875 22.3846C92.4284 23.1526 92.6631 24.0984 92.6915 25.2219L91.9875 23.8993V16.0699H93.5875V31.6433H92.3075V26.6299H92.8195C92.7911 27.8104 92.5422 28.8059 92.0729 29.6166C91.6177 30.4131 91.0133 31.0104 90.2595 31.4086C89.52 31.8068 88.688 32.0059 87.7635 32.0059ZM87.9769 30.5979C88.7449 30.5979 89.4346 30.4273 90.0462 30.0859C90.672 29.7446 91.1626 29.2611 91.5182 28.6353C91.8737 27.9953 92.0515 27.2628 92.0515 26.4379V25.4139C92.0515 24.6175 91.8737 23.9206 91.5182 23.3233C91.1626 22.7117 90.672 22.2353 90.0462 21.8939C89.4346 21.5526 88.7377 21.3819 87.9555 21.3819C87.1164 21.3819 86.384 21.5882 85.7582 22.0006C85.1466 22.3988 84.6702 22.9464 84.3289 23.6433C84.0017 24.3402 83.8382 25.1224 83.8382 25.9899C83.8382 26.8859 84.0089 27.6824 84.3502 28.3793C84.6915 29.0762 85.1751 29.6237 85.8009 30.0219C86.4266 30.4059 87.152 30.5979 87.9769 30.5979Z" fill="black"/>
<path d="M69.806 31.6434V20.3581H71.086V25.0941H70.83C70.83 24.0416 70.9865 23.1385 71.2994 22.3847C71.6123 21.6309 72.0816 21.0478 72.7074 20.6354C73.3331 20.2229 74.1225 20.0167 75.0754 20.0167H75.1394C76.5616 20.0167 77.6211 20.4647 78.318 21.3607C79.0149 22.2425 79.3634 23.4869 79.3634 25.0941V31.6434H77.7847V24.7527C77.7847 23.7714 77.5145 22.9821 76.974 22.3847C76.4336 21.7874 75.6798 21.4887 74.7127 21.4887C73.7171 21.4887 72.9136 21.8016 72.302 22.4274C71.7047 23.0389 71.406 23.8496 71.406 24.8594V31.6434H69.806Z" fill="black"/>
<path d="M64.7422 31.6433V28.2513H64.4862V24.2406C64.4862 23.4015 64.2658 22.7615 63.8249 22.3206C63.384 21.8655 62.7013 21.638 61.7769 21.638C61.3502 21.638 60.9164 21.6451 60.4755 21.6593C60.0489 21.6735 59.6364 21.6949 59.2382 21.7233C58.8542 21.7375 58.5129 21.7589 58.2142 21.7873V20.3793C58.5271 20.3509 58.8471 20.3224 59.1742 20.294C59.5013 20.2655 59.8355 20.2513 60.1769 20.2513C60.5324 20.2371 60.8738 20.23 61.2009 20.23C62.3529 20.23 63.2773 20.3722 63.9742 20.6566C64.6853 20.9411 65.2044 21.3891 65.5315 22.0006C65.8587 22.598 66.0222 23.3944 66.0222 24.39V31.6433H64.7422ZM60.9235 31.942C60.1271 31.942 59.4231 31.7998 58.8115 31.5153C58.2 31.2309 57.7235 30.8184 57.3822 30.278C57.0551 29.7375 56.8915 29.0833 56.8915 28.3153C56.8915 27.5615 57.0622 26.9215 57.4035 26.3953C57.7591 25.8691 58.264 25.4709 58.9182 25.2006C59.5867 24.9162 60.3902 24.774 61.3289 24.774H64.6355V25.99H61.2222C60.3262 25.99 59.6364 26.2104 59.1529 26.6513C58.6835 27.078 58.4489 27.6398 58.4489 28.3366C58.4489 29.0478 58.6978 29.6166 59.1955 30.0433C59.6933 30.4558 60.3689 30.662 61.2222 30.662C61.7484 30.662 62.2533 30.5695 62.7369 30.3846C63.2204 30.1855 63.6258 29.8584 63.9529 29.4033C64.28 28.934 64.4578 28.294 64.4862 27.4833L64.9555 28.1446C64.8987 28.9838 64.6995 29.6878 64.3582 30.2566C64.0169 30.8113 63.5547 31.2309 62.9715 31.5153C62.3884 31.7998 61.7058 31.942 60.9235 31.942Z" fill="black"/>
<path d="M44.5451 31.6433V16.0699H46.1451V24.8806L45.6757 25.2433C45.6757 24.1908 45.8251 23.2735 46.1237 22.4913C46.4366 21.7091 46.8989 21.1046 47.5104 20.6779C48.1362 20.2371 48.9184 20.0166 49.8571 20.0166H49.9424C51.3077 20.0166 52.3389 20.4646 53.0357 21.3606C53.7469 22.2566 54.1024 23.5011 54.1024 25.0939V31.6433H52.5237V24.7526C52.5237 23.7428 52.2464 22.9464 51.6917 22.3633C51.1371 21.7802 50.3904 21.4886 49.4517 21.4886C48.442 21.4886 47.6384 21.8157 47.0411 22.4699C46.4437 23.1099 46.1451 23.9562 46.1451 25.0086V31.6433H44.5451Z" fill="black"/>
<path d="M66.7571 48.5715L68.9956 38.429H71.0756L73.6706 48.5715H72.383L69.788 38.4885H70.2634L68.0051 48.5715H66.7571ZM65.9053 48.5715V47.3631H67.708V48.5715H65.9053ZM65.5487 48.5715L62.5179 38.0923H63.9442L66.9354 48.5715H65.5487ZM72.7198 48.5715V47.3631H74.4828V48.5715H72.7198ZM73.4924 48.5715L76.1072 38.0923H77.4741L74.7998 48.5715H73.4924Z" fill="black"/>
</svg>
  </symbol>

  <symbol id="icon-star-outline" viewBox="0 0 24 24">
    <path fill="none" stroke="currentColor" stroke-width="2" d="M12 1c0.0375 0 0.0716 0.0106 0.0986 0.0283 0.0231 0.0153 0.0582 0.0468 0.0869 0.1192l2.4346 6.123c0.3072 0.7721 1.0166 1.3293 1.8643 1.4004l6.3193 0.5303c0.0492 41e-4 0.0782 0.0198 0.1016 0.04 0.0283 0.0246 0.0601 0.0678 0.0791 0.1289 0.0391 0.1259 61e-4 0.2358-0.0752 0.3086l-4.8145 4.3135c-0.6221 0.5576-0.8808 1.4149-0.6972 2.2197l1.4716 6.4502c0.032 0.1403-0.021 0.2401-0.0957 0.2969-0.0381 0.0289-0.0735 0.0393-0.0976 0.041-0.0179 12e-4-0.0485-8e-4-0.0977-0.0322l-5.4101-3.4561c-0.7148-0.4567-1.6212-0.4567-2.336 0l-5.4101 3.4561C5.3727 22.9992 5.3421 23.0012 5.3242 23c-0.0241-17e-4-0.0595-0.0121-0.0976-0.041-0.0747-0.0568-0.1277-0.1566-0.0957-0.2969l1.4716-6.4502c0.1836-0.8047-0.075-1.6621-0.6972-2.2197L1.0908 9.6787C1.0095 9.6059 0.9765 9.496 1.0156 9.3701 1.0346 9.309 1.0664 9.2658 1.0947 9.2412 1.1181 9.221 1.147 9.2053 1.1963 9.2012l6.3193-0.5303c0.8477-0.0711 1.5571-0.6281 1.8643-1.4004l2.4346-6.123c0.0287-0.0724 0.0638-0.1039 0.0869-0.1192C11.9284 1.0106 11.9625 1 12 1z" />
  </symbol>

  <symbol id="icon-facebook" viewBox="0 0 24 24">
  <path d="M22 12.3038C22 6.74719 17.5229 2.24268 12 2.24268C6.47715 2.24268 2 6.74719 2 12.3038C2 17.3255 5.65684 21.4879 10.4375 22.2427V15.2121H7.89844V12.3038H10.4375V10.0872C10.4375 7.56564 11.9305 6.1728 14.2146 6.1728C15.3088 6.1728 16.4531 6.36931 16.4531 6.36931V8.84529H15.1922C13.95 8.84529 13.5625 9.6209 13.5625 10.4166V12.3038H16.3359L15.8926 15.2121H13.5625V22.2427C18.3432 21.4879 22 17.3257 22 12.3038Z" fill="black" />
  </symbol>

  <symbol id="icon-location" viewBox="0 0 16 20">
    <path d="M8.0001 12c2.206 0 4-1.794 4-4s-1.794-4-4-4c-2.206 0-4 1.794-4 4 0 2.206 1.794 4 4 4zM8.0001 6c1.103 0 2 0.897 2 2s-0.897 2-2 2c-1.103 0-2-0.897-2-2 0-1.103 0.897-2 2-2z" />
    <path d="M7.4201 19.814c0.1692 0.1209 0.372 0.1858 0.58 0.1858 0.208 0 0.4107-0.0649 0.58-0.1858 0.304-0.215 7.449-5.374 7.42-11.814 0-4.411-3.589-8-8-8-4.411 0-8 3.589-8 7.995-0.029 6.445 7.116 11.604 7.42 11.819zM8.0001 2c3.309 0 6 2.691 6 6.005 0.021 4.438-4.388 8.423-6 9.73-1.611-1.308-6.021-5.294-6-9.735 0-3.309 2.691-6 6-6z" />
  </symbol>

  <symbol id="icon-instagram" viewBox="0 0 24 24">
  <path d="M11.9988 4.62091C14.4032 4.62091 14.6878 4.63159 15.6332 4.67378C16.5123 4.71258 16.9864 4.85994 17.303 4.98311C17.7215 5.14509 18.0235 5.34194 18.3362 5.65465C18.6528 5.97129 18.8458 6.26994 19.0111 6.68838C19.1343 7.00503 19.2816 7.48253 19.3204 8.35822C19.3626 9.3076 19.3733 9.59218 19.3733 11.9932C19.3733 14.3942 19.3626 14.6821 19.3204 15.6281C19.2816 16.5072 19.1343 16.9813 19.0111 17.298C18.8491 17.7164 18.6528 18.0184 18.3396 18.3311C18.0229 18.6478 17.7243 18.8407 17.3064 19.0061C16.9898 19.1292 16.5117 19.2766 15.6366 19.3154C14.6872 19.3576 14.4026 19.3683 12.0016 19.3683C9.60062 19.3683 9.31266 19.3576 8.36666 19.3154C7.48759 19.2766 7.01346 19.1292 6.69682 19.0061C6.27838 18.8441 5.97635 18.6478 5.66308 18.3345C5.34644 18.0179 5.15353 17.7192 4.98817 17.3013C4.865 16.9847 4.71765 16.5066 4.67884 15.6315C4.63666 14.6821 4.62597 14.3975 4.62597 11.9965C4.62597 9.59556 4.63666 9.3076 4.67884 8.3616C4.71765 7.48253 4.865 7.0084 4.98817 6.69176C5.15015 6.27331 5.347 5.97129 5.65971 5.65802C5.97635 5.34137 6.275 5.14846 6.69344 4.98311C7.01009 4.85994 7.48759 4.71258 8.36328 4.67378C9.30872 4.63159 9.59387 4.62091 11.9982 4.62091H11.9988ZM11.9988 3.00056C9.55563 3.00056 9.25023 3.01125 8.29017 3.05343C7.33405 3.09561 6.67657 3.25028 6.1074 3.47187C5.51348 3.70359 5.01067 4.00955 4.5118 4.51236C4.00899 5.01179 3.70303 5.51404 3.47131 6.10459C3.24972 6.6777 3.09505 7.33123 3.05287 8.28736C3.01069 9.25079 3 9.55619 3 11.9994C3 14.4425 3.01069 14.7479 3.05287 15.708C3.09505 16.6641 3.24972 17.3216 3.47131 17.8908C3.70359 18.4847 4.00899 18.9875 4.5118 19.4864C5.01067 19.9852 5.51348 20.2951 6.10402 20.5235C6.67713 20.7451 7.33067 20.8997 8.28679 20.9419C9.24629 20.9841 9.55225 20.9948 11.9954 20.9948C14.4386 20.9948 14.7446 20.9841 15.7041 20.9419C16.6602 20.8997 17.3177 20.7451 17.8868 20.5235C18.4774 20.2951 18.9802 19.9858 19.4791 19.4864C19.9779 18.9869 20.2878 18.4847 20.5162 17.8941C20.7378 17.321 20.8924 16.6675 20.9346 15.7114C20.9768 14.7519 20.9875 14.4459 20.9875 12.0027C20.9875 9.55956 20.9768 9.25417 20.9346 8.29411C20.8924 7.33798 20.7378 6.68051 20.5162 6.11133C20.2946 5.51348 19.9886 5.01123 19.4864 4.5118C18.9875 4.01293 18.4847 3.70303 17.8941 3.47469C17.321 3.25309 16.6675 3.09842 15.7114 3.05624C14.7485 3.01069 14.4425 3 11.9994 3L11.9988 3.00056Z" fill="black" />
  <path d="M11.9985 7.37695C9.44683 7.37695 7.37598 9.44724 7.37598 11.9995C7.37598 14.5518 9.44626 16.6221 11.9985 16.6221C14.5508 16.6221 16.6211 14.5518 16.6211 11.9995C16.6211 9.4478 14.5508 7.37695 11.9985 7.37695ZM11.9985 14.9978C10.3428 14.9978 9.00026 13.6553 9.00026 11.9995C9.00026 10.3437 10.3428 9.00124 11.9985 9.00124C13.6543 9.00124 14.9968 10.3437 14.9968 11.9995C14.9968 13.6553 13.6543 14.9978 11.9985 14.9978Z" fill="black" />
  <path d="M17.8822 7.19404C17.8822 7.79021 17.3991 8.27333 16.8029 8.27333C16.2068 8.27333 15.7236 7.79021 15.7236 7.19404C15.7236 6.59787 16.2068 6.11475 16.8029 6.11475C17.3991 6.11475 17.8822 6.59787 17.8822 7.19404Z" fill="black" />
  </symbol>

  <symbol id="icon-hand-heart" viewBox="0 0 20 19">
  <path fill="currentColor" d="M2 19h9.62c0.5771 3e-4 1.1474-0.1244 1.6716-0.3656 0.5243-0.2411 0.9901-0.593 1.3654-1.0314l5.102-5.952c0.1068-0.1244 0.1814-0.2732 0.2172-0.4332 0.0358-0.1601 0.0317-0.3265-0.012-0.4845-0.0436-0.1581-0.1255-0.303-0.2384-0.422s-0.2532-0.2084-0.4088-0.2603l-1.968-0.656c-0.4756-0.1546-0.9821-0.1896-1.4745-0.1018-0.4924 0.0877-0.9555 0.2954-1.3485 0.6048l-3.185 2.547-0.617-1.235c-0.3305-0.6657-0.8409-1.2256-1.4733-1.6162C8.6184 9.2033 7.8893 8.9975 7.146 9L2 9c-1.103 0-2 0.897-2 2v6c0 1.103 0.897 2 2 2zM2 11h5.146c0.763 0 1.448 0.423 1.789 1.105L9.382 13H5v2h6.014c0.1539-2e-3 0.3051-0.0397 0.442-0.11l3e-3-1e-3 4e-3-2e-3h3e-3l2e-3-1e-3h4e-3l1e-3-1e-3c9e-3 3e-3 3e-3-1e-3 3e-3-1e-3 0.01 0 2e-3-1e-3 2e-3-1e-3h1e-3l2e-3-1e-3 3e-3-1e-3 4e-3-2e-3 3e-3-1e-3 2e-3-1e-3c3e-3 0 2e-3-1e-3 2e-3-1e-3l3e-3-2e-3 4e-3-2e-3 3e-3-1e-3 2e-3-1e-3h1e-3l2e-3-1e-3 3e-3-1e-3 2e-3-1e-3c9e-3-1e-3 3e-3-1e-3 3e-3-1e-3l2e-3-1e-3c0.0385-0.0232 0.0753-0.0493 0.11-0.078l4.146-3.317c0.262-0.208 0.623-0.273 0.94-0.167l0.557 0.186-4.133 4.823c-0.1901 0.2159-0.424 0.3889-0.686 0.5075-0.2621 0.1186-0.5463 0.1801-0.834 0.1805H2zM13.983 0C13.82 2e-3 12.977 0.039 12 0.705c-0.951-0.648-1.774-0.7-1.968-0.704L10.002 0 9.998 0C9.197 0 8.443 0.313 7.879 0.878 7.313 1.445 7 2.198 7 3 7 3.802 7.313 4.555 7.861 5.104l3.414 3.586c0.0939 0.0975 0.2066 0.1751 0.3312 0.228 0.1246 0.0529 0.2586 0.0802 0.394 0.0801 0.1354-1e-4 0.2694-0.0275 0.3939-0.0806 0.1246-0.0532 0.2371-0.1309 0.3309-0.2285l3.396-3.568C16.688 4.555 17 3.802 17 3c0-0.802-0.313-1.555-0.878-2.121-0.2777-0.2794-0.608-0.501-0.9719-0.6519C14.7862 0.0762 14.3959-1e-3 14.002 0zM15 3c0 0.267-0.104 0.518-0.311 0.725L12 6.55 9.293 3.707C9.104 3.518 9 3.267 9 3 9 2.733 9.104 2.482 9.294 2.292 9.4748 2.1081 9.7211 2.0031 9.979 2c0.025 1e-3 0.502 0.032 1.067 0.485 0.081 0.065 0.163 0.139 0.247 0.222L12 3.414l0.707-0.707c0.084-0.083 0.166-0.157 0.247-0.222 0.529-0.425 0.976-0.478 1.052-0.484 0.1303 0 0.2594 0.0258 0.3797 0.0759s0.2295 0.1236 0.3213 0.2161C14.896 2.482 15 2.733 15 3z" />
  </symbol>

  <symbol id="icon-linkedin" viewBox="0 0 24 24">
  <path d="M19.3125 3H4.6875C3.75938 3 3 3.75938 3 4.6875V19.3125C3 20.2406 3.75938 21 4.6875 21H19.3125C20.2406 21 21 20.2406 21 19.3125V4.6875C21 3.75938 20.2406 3 19.3125 3ZM9.75 17.625H7.5V9.75H9.75V17.625ZM8.625 8.625C8.00287 8.625 7.5 8.12213 7.5 7.5C7.5 6.87788 8.00287 6.375 8.625 6.375C9.24713 6.375 9.75 6.87788 9.75 7.5C9.75 8.12213 9.24713 8.625 8.625 8.625ZM17.625 17.625H15.375V13.125C15.375 12.5029 14.8721 12 14.25 12C13.6279 12 13.125 12.5029 13.125 13.125V17.625H10.875V9.75H13.125V11.1456C13.5891 10.5094 14.2989 9.75 15.0938 9.75C16.4932 9.75 17.625 11.0089 17.625 12.5625V17.625Z" fill="black" />
  </symbol>

  <symbol id="icon-leaf" viewBox="0 0 19 20">
  <path fill="currentColor" d="M18.7235 0l-1.2 0.4c-2.0566 0.7145-4.2527 0.9338-6.41 0.64-2.2669-0.3518-4.5871-0.0392-6.68 0.9C3.324 2.4125 2.3503 3.1549 1.601 4.0998 0.8517 5.0447 0.3507 6.162 0.1435 7.35c-0.2107 1.1424-0.1892 2.3156 0.0634 3.4496 0.2525 1.1339 0.7309 2.2054 1.4066 3.1504-0.06 0.21-0.12 0.42-0.17 0.63-0.4062 1.727-0.6075 3.4959-0.6 5.27h2c0.094-1.4522 0.2912-2.8958 0.59-4.32 1.3874 0.7492 2.9433 1.1313 4.52 1.11 1.4705-1e-3 2.9258-0.2968 4.28-0.87 7.61-3.25 6.61-14.06 6.61-14.51zM11.4535 13.93c-2.61 1.11-5.73 0.92-7.48-0.45 0.2958-0.989 0.7017-1.9416 1.21-2.84 0.3952-0.6466 0.8614-1.247 1.39-1.79 0.5401-0.5488 1.1484-1.026 1.81-1.42 1.3671-0.8175 2.8832-1.3546 4.46-1.58v-1c-1.8142-0.0628-3.6173 0.3074-5.26 1.08-1.6796 0.8195-3.104 2.0814-4.12 3.65-0.3768 0.5991-0.711 1.224-1 1.87C2 10.2644 1.8686 8.9748 2.0835 7.72 2.2243 6.8415 2.5864 6.0134 3.1357 5.3136 3.6851 4.6138 4.4036 4.0653 5.2235 3.72c1.1956-0.5588 2.5002-0.8457 3.82-0.84 0.62 0 1.23 0.06 1.87 0.11 2.0043 0.2586 4.0393 0.1399 6-0.35-0.07 2.76-0.57 9.21-5.46 11.29z" />
  </symbol>

  <symbol id="icon-email" viewBox="0 0 20 16">
    <path d="M18 0H2C0.897 0 0 0.897 0 2v12c0 1.103 0.897 2 2 2h16c1.103 0 2-0.897 2-2V2c0-1.103-0.897-2-2-2zM18 2v0.511l-8 6.223-8-6.222V2zM2 14V5.044l7.386 5.745c0.1751 0.1375 0.3913 0.2123 0.614 0.2123 0.2227 0 0.4389-0.0748 0.614-0.2123L18 5.044 18.002 14z" />
  </symbol>

  <symbol id="icon-menu" viewBox="0 0 16 12">
    <path d="M0 0h16v2H0zM0 5h16v2H0zM0 10h16v2H0z" />
  </symbol>

  <symbol id="icon-phone" viewBox="0 0 19 19">
    <path d="M14.7122 10.2932c-0.0928-0.0929-0.203-0.1667-0.3243-0.217S14.1365 10 14.0052 10s-0.2614 0.0259-0.3827 0.0762-0.2315 0.1241-0.3243 0.217l-1.594 1.594c-0.739-0.22-2.118-0.72-2.992-1.594-0.874-0.874-1.374-2.253-1.594-2.992l1.594-1.594c0.093-0.0928 0.1667-0.203 0.217-0.3243 0.0503-0.1213 0.0762-0.2514 0.0762-0.3827 0-0.1313-0.0259-0.2614-0.0762-0.3827-0.0503-0.1213-0.124-0.2315-0.217-0.3243l-4-4c-0.0928-0.0929-0.203-0.1667-0.3243-0.217C4.2666 0.0259 4.1366 0 4.0052 0 3.8739 0 3.7438 0.0259 3.6225 0.0762 3.5012 0.1265 3.391 0.2003 3.2982 0.2932l-2.712 2.712c-0.38 0.38-0.594 0.902-0.586 1.435 0.023 1.424 0.4 6.37 4.298 10.268 3.898 3.898 8.844 4.274 10.269 4.298h0.028c0.528 0 1.027-0.208 1.405-0.586l2.712-2.712c0.093-0.0928 0.1667-0.203 0.217-0.3243s0.0762-0.2514 0.0762-0.3827-0.0259-0.2614-0.0762-0.3827-0.124-0.2315-0.217-0.3243zM14.5852 17.0052c-1.248-0.021-5.518-0.356-8.873-3.712-3.366-3.366-3.692-7.651-3.712-8.874l2.005-2.005 2.586 2.586-1.293 1.293C5.1807 6.4107 5.0943 6.5555 5.0468 6.7148 4.9993 6.874 4.9922 7.0426 5.0262 7.2052c0.024 0.115 0.611 2.842 2.271 4.502 1.66 1.66 4.387 2.247 4.502 2.271 0.1626 0.035 0.3313 0.0285 0.4907-0.0189 0.1593-0.0474 0.3042-0.1341 0.4213-0.2521l1.294-1.293 2.586 2.586z" />
  </symbol>

  <symbol id="icon-star-filled" viewBox="0 0 24 24">
    <path d="M10.8851 0.778c0.4125-1.0373 1.8174-1.0373 2.2299 0l2.4345 6.1229c0.174 0.4373 0.5672 0.7361 1.0185 0.774l6.3193 0.5299c1.0706 0.0898 1.5048 1.4874 0.689 2.2183l-4.8145 4.314c-0.3439 0.3082-0.4942 0.7917-0.3891 1.2524l1.4709 6.4503c0.2492 1.0929-0.8873 1.9567-1.804 1.3711l-5.4101-3.4567c-0.3865-0.2469-0.8725-0.2469-1.2589 0l-5.4102 3.4567c-0.9167 0.5856-2.0532-0.2782-1.804-1.3711l1.4709-6.4503c0.1051-0.4607-0.0451-0.9442-0.389-1.2524l-4.8146-4.314c-0.8158-0.7309-0.3816-2.1285 0.689-2.2183l6.3193-0.53c0.4514-0.0378 0.8446-0.3366 1.0185-0.774z" />
  </symbol>

  <symbol id="icon-x" viewBox="0 0 24 24">
  <path d="M17.1761 4.24268H19.9362L13.9061 11.0201L21 20.2427H15.4456L11.0951 14.6493L6.11723 20.2427H3.35544L9.80517 12.9935L3 4.24268H8.69545L12.6279 9.3553L17.1761 4.24268ZM16.2073 18.6181H17.7368L7.86441 5.78196H6.2232L16.2073 18.6181Z" fill="black" />
  </symbol>

  <symbol id="icon-close" viewBox="0 0 12 12">
    <path d="M9.899 0 5.656 4.242 1.414 0 0 1.414 4.242 5.656 0 9.898l1.414 1.414 4.242-4.242 4.243 4.242 1.414-1.414-4.242-4.242 4.242-4.242z" />
  </symbol>

  <symbol id="icon-youtube" viewBox="0 0 24 24">
  <path d="M21.5928 7.20301C21.4789 6.78041 21.2563 6.39501 20.9472 6.08518C20.6381 5.77534 20.2532 5.55187 19.8308 5.43701C18.2648 5.00701 11.9998 5.00001 11.9998 5.00001C11.9998 5.00001 5.73584 4.99301 4.16884 5.40401C3.74677 5.52415 3.36266 5.75078 3.05341 6.06214C2.74415 6.3735 2.52013 6.75913 2.40284 7.18201C1.98984 8.74801 1.98584 11.996 1.98584 11.996C1.98584 11.996 1.98184 15.26 2.39184 16.81C2.62184 17.667 3.29684 18.344 4.15484 18.575C5.73684 19.005 11.9848 19.012 11.9848 19.012C11.9848 19.012 18.2498 19.019 19.8158 18.609C20.2383 18.4943 20.6236 18.2714 20.9335 17.9622C21.2434 17.653 21.4672 17.2682 21.5828 16.846C21.9968 15.281 21.9998 12.034 21.9998 12.034C21.9998 12.034 22.0198 8.76901 21.5928 7.20301ZM9.99584 15.005L10.0008 9.00501L15.2078 12.01L9.99584 15.005Z" fill="black" />
  </symbol>

  </defs>
</svg>
