<svg aria-hidden="true" style="position:absolute;width:0;height:0;overflow:hidden" xmlns="http://www.w3.org/2000/svg">
  <defs>
      <symbol id="icon-book" viewBox="0 0 18 20">
    <path d="M3 20h15v-2H3.012C2.55 17.988 2 17.805 2 17s0.55-0.988 1.012-1H18V2c0-1.103-0.897-2-2-2H3C1.794 0 0 0.799 0 3v14c0 2.201 1.794 3 3 3zM2 3c0-0.805 0.55-0.988 1-1h13v12H2z" />
    <path d="M5 4h9v2H5z" />
  </symbol>

  <symbol id="icon-logo" viewBox="0 0 22 33">
  <path fill="currentColor" clip-rule="evenodd" d="M20.1281 7.8614l0.0182 0.015 0.1829 0.1523 0.147 0.1227 0.6505 0.5411 12e-4 15.1169c-3.4647 2.8609-6.9512 5.6956-10.4585 8.5034-0.2226-0.0221-5.9995-4.7733-8.9341-7.1869l-0.0819-0.0674c-0.7521-0.6185-1.3049-1.0731-1.5093-1.2382L0.1338 8.7008 10.5817 0.1402c0.3405 0.0482 6.8628 5.4842 9.5464 7.7212zM15.6165 10.9499l-0.0118-0.019-18e-4-34e-4-0.0164-0.0262c-1.717-2.7783-4.7248-7.6447-4.9821-7.8293L4.542 12.7314l0.0136 6.7055 1.219 2.0003c0.5338 0.076 1.0721 0.163 1.6121 0.2502 1.0957 0.177 2.1986 0.3553 3.2863 0.4457l0.6578-0.0982 0.7932-0.1197c1.1204-0.1694 2.2411-0.3388 3.3637-0.4889l1.2229-1.8993-6e-4-6.8146c-0.1458-0.2288-0.5534-0.8885-1.0935-1.7625zM17.163 13.5235c0.4267 0.5333 0.7932 1.1873 1.1482 1.8208 0.1026 0.1825 0.2039 0.3633 0.3055 0.539 0.0505 0.0874 0.101 0.1735 0.1518 0.258l-0.2035 0.3323-0.2114 0.3435c-0.1845 0.2984-0.3699 0.596-0.5568 0.893l-0.6453 1.0469c-6e-4-0.5033-48e-4-1.0077-91e-4-1.5124-0.0102-1.2411-0.0202-2.4844 0.0206-3.7211zM12.326 2.0283c-0.5014-0.4404-1.1165-0.9804-1.4854-1.1378l0.0111 0.4963c91e-4 0.3897 0.0182 0.7795 0.0215 1.1691 1.9257 3.1078 3.8675 6.2057 5.8253 9.2935-3e-4-0.095-45e-4-0.2435-97e-4-0.4258v-93e-4-96e-4-5e-3-62e-4c-0.0233-0.8701-0.0656-2.4523 0.1564-2.6854 57e-4-64e-4 0.0121-0.0122 0.019-0.0179l0.0167-0.0135 0.0166-0.0135 0.1956 0.0855c0.1509 0.6875 0.1147 1.7601 0.0823 2.7156l-6e-4 0.0139-18e-4 0.0584c-0.013 0.3981-0.0251 0.7734-0.0215 1.0888 0.2574 0.4307 0.5214 0.8588 0.7857 1.2872 0.459 0.744 0.9184 1.4887 1.3442 2.2489l-2.1269 3.4151 52e-4 2.1887v1.6853l3.5273 19e-4-76e-4-14.5453c-2.5853-2.1751-5.196-4.3191-7.8324-6.4317L12.7657 2.409 12.691 2.3461c-0.1095-0.0932-0.2332-0.2021-0.365-0.3178zM10.3328 0.9181l0.0505 0.0433c0.1019 0.3026 0.0735 0.7698 0.049 1.1743-91e-4 0.1485-0.0175 0.2885-0.0191 0.4089l-5.8839 9.3901c15e-4-0.1452 57e-4-0.2985 0.0115-0.4571l54e-4-0.1456 0.0118-0.2844c0.03-0.7096 0.062-1.4718-0.0169-2.0685-0.0221-0.1672-0.072-0.2276-0.2014-0.3255L4.2036 8.6794c-0.2056 0.3199-0.1467 2.3-0.1146 3.3788l94e-4 0.3336c27e-4 0.0978 45e-4 0.1792 51e-4 0.2402-0.7061 1.1542-1.4026 2.314-2.0899 3.4794l2.0941 3.4342-87e-4 1.9639-7e-3 1.9437-3.5167-51e-4 0.0133-14.5332c2.0951-1.8072 4.2555-3.551 6.4141-5.2932 1.1138-0.8988 2.2269-1.7972 3.3301-2.7036zM8.0753 22.229c-0.6616-0.118-1.3227-0.2358-1.9804-0.2891l0.5086 0.8166c1.356 2.1762 2.7153 4.3585 4.0121 6.5675 0.6574-1.0604 1.3085-2.1247 1.952-3.1929 0.2912-0.4694 0.58-0.9408 0.8688-1.4122 0.5719-0.9337 1.1443-1.8678 1.7355-2.788-0.3683 0.0522-0.8065 0.1278-1.2728 0.2083-1.1573 0.1997-2.4888 0.4295-3.3591 0.4057-0.8175-0.0223-1.6412-0.1692-2.4647-0.3159zM4.5326 21.7039l0.9961 0.1439c0.6678 1.1076 1.347 2.2083 2.0262 3.3091l27e-4 49e-4 0.0181 0.0296c0.952 1.5436 1.904 3.0873 2.8248 4.65-6e-4 0.2434 0 0.4869 22e-4 0.7305 27e-4 0.349 78e-4 0.6981 0.0157 1.047l-1.9856-1.6253-7.4952-6.1138c0.841 0.0117 1.6829 92e-4 2.5245 66e-4 0.3553-11e-4 0.7106-21e-4 1.0657-21e-4 0.0196-0.726 63e-4-1.4538 48e-4-2.1804zM16.4632 21.7368l-0.0372 35e-4-0.6895 0.1062-4.8763 7.9361-0.019 1.8305c0.3142-0.2561 0.6287-0.5114 0.9441-0.7659 0.3946-0.3187 0.7905-0.6362 1.1869-0.9527 2.4677-1.9802 4.9154-3.9846 7.3431-6.0141l-3.6002 39e-4c21e-4-0.1607 88e-4-0.3284 0.0158-0.4993l9e-4-0.0148c0.022-0.5309 0.0453-1.0925-0.0608-1.5761-0.0947-0.0711-0.1068-0.0696-0.1796-0.0607zM4.1065 18.5402 4.105 18.7033 3.584 17.8521c-0.2214-0.407-0.4688-0.806-0.7152-1.2032-0.1098-0.1772-0.2193-0.354-0.3263-0.531 0.3042-0.571 0.6383-1.1294 0.9722-1.6871L3.77 14.0039c0.084-0.1417 0.1678-0.2836 0.2503-0.4257 0.1745 0.2655 0.1225 3.0062 0.0959 4.407-42e-4 0.2248-79e-4 0.415-97e-4 0.555zM16.237 21.2554l0.0904-0.1614c0.1591-0.2851 0.3191-0.5716 0.5253-0.8255 0.0185 0.2623-9e-4 0.6193-0.0481 0.8341-0.2585 0.0949-0.3634 0.1285-0.5676 0.1528zM4.5586 20.3581c0.2453 0.302 0.4246 0.6499 0.6154 0.987-0.0701-84e-4-0.1022-0.011-0.1336-0.017-0.0599-0.0115-0.1174-0.0355-0.434-0.1359-0.0478-0.3044-0.0665-0.5718-0.0478-0.8341z" fill-rule="evenodd" />
    <path stroke-width="0.266667" stroke="currentColor" d="M15.6047 10.9309l0.0118 0.019c0.5401 0.874 0.9477 1.5337 1.0935 1.7625l6e-4 6.8146-1.2229 1.8993c-1.1226 0.1501-2.2433 0.3195-3.3637 0.4889l-0.7932 0.1197-0.6578 0.0982c-1.0877-0.0904-2.1906-0.2687-3.2862-0.4457-0.5401-0.0872-1.0784-0.1742-1.6122-0.2502l-1.219-2.0003-0.0136-6.7055 6.0624-9.6594M15.6047 10.9309l-18e-4-34e-4-0.0164-0.0262c-1.717-2.7783-4.7248-7.6447-4.9821-7.8293M15.6047 10.9309c-0.4288-0.6941-0.9402-1.5216-1.4697-2.3749C12.5486 6 10.7979 3.2109 10.6044 3.072M16.6985 11.8494c-1.9578-3.0878-3.8996-6.1857-5.8253-9.2935-33e-4-0.3896-0.0124-0.7794-0.0215-1.1691l-0.0111-0.4963c0.3689 0.1574 0.984 0.6974 1.4854 1.1378 0.1318 0.1157 0.2555 0.2246 0.365 0.3178l0.0747 0.0629 0.0813 0.0665c2.6364 2.1125 5.2471 4.2566 7.8324 6.4317l76e-4 14.5453-3.5273-19e-4v-1.6853l-52e-4-2.1887 2.1269-3.4151c-0.4258-0.7602-0.8852-1.5049-1.3442-2.2489-0.2643-0.4284-0.5283-0.8565-0.7857-1.2872M16.6985 11.8494c-3e-4-0.095-45e-4-0.2435-97e-4-0.4258M16.6985 11.8494c0-15e-4 0-3e-3 0-45e-4 0-0.0951-45e-4-0.2419-97e-4-0.4213M16.6888 11.4236v-93e-4-96e-4-5e-3-62e-4c-0.0233-0.8701-0.0656-2.4523 0.1564-2.6854 57e-4-64e-4 0.0121-0.0122 0.019-0.0179l0.0167-0.0135 0.0166-0.0135 0.1956 0.0855c0.1509 0.6875 0.1147 1.7601 0.0823 2.7156M17.1754 11.4643l-6e-4 0.0139-18e-4 0.0584c-0.013 0.3981-0.0251 0.7734-0.0215 1.0888M17.1754 11.4643c-21e-4 0.0623-39e-4 0.1251-61e-4 0.1863-0.0114 0.3556-0.0211 0.6897-0.0178 0.9748M5.0404 21.3281c0.0314 6e-3 0.0635 86e-4 0.1336 0.017-0.1908-0.3371-0.3701-0.685-0.6154-0.987-0.0187 0.2623 0 0.5297 0.0478 0.8341M5.0404 21.3281c-0.0599-0.0115-0.1174-0.0355-0.434-0.1359M5.0404 21.3281c-0.0593-0.0114-0.115-0.0346-0.4222-0.1321-39e-4-13e-4-79e-4-25e-4-0.0118-38e-4M20.1281 7.8614l0.0182 0.015 0.1829 0.1523 0.147 0.1227 0.6505 0.5411 12e-4 15.1169c-3.4647 2.8609-6.9512 5.6956-10.4585 8.5034-0.2226-0.0221-5.9995-4.7733-8.9341-7.1869l-0.0819-0.0674c-0.7521-0.6185-1.3049-1.0731-1.5093-1.2382L0.1338 8.7008 10.5817 0.1402c0.3405 0.0482 6.8628 5.4842 9.5464 7.7212zM17.163 13.5235c0.4267 0.5333 0.7932 1.1873 1.1482 1.8208 0.1026 0.1825 0.2039 0.3633 0.3055 0.539 0.0505 0.0874 0.101 0.1735 0.1518 0.258l-0.2035 0.3323-0.2114 0.3435c-0.1845 0.2984-0.3699 0.596-0.5568 0.893l-0.6453 1.0469c-6e-4-0.5033-48e-4-1.0077-91e-4-1.5124-0.0102-1.2411-0.0202-2.4844 0.0206-3.7211zM10.3328 0.9181l0.0505 0.0433c0.1019 0.3026 0.0735 0.7698 0.049 1.1743-91e-4 0.1485-0.0175 0.2885-0.0191 0.4089l-5.8839 9.3901c15e-4-0.1452 57e-4-0.2985 0.0115-0.4571l54e-4-0.1456 0.0118-0.2844c0.03-0.7096 0.062-1.4718-0.0169-2.0685-0.0221-0.1672-0.072-0.2276-0.2014-0.3255L4.2036 8.6794c-0.2056 0.3199-0.1467 2.3-0.1146 3.3788l94e-4 0.3336c27e-4 0.0978 45e-4 0.1792 51e-4 0.2402-0.7061 1.1542-1.4026 2.314-2.0899 3.4794l2.0941 3.4342-87e-4 1.9639-7e-3 1.9437-3.5167-51e-4 0.0133-14.5332c2.0951-1.8072 4.2555-3.551 6.4141-5.2932 1.1138-0.8988 2.2269-1.7972 3.3301-2.7036zM8.0753 22.229c-0.6616-0.118-1.3227-0.2358-1.9804-0.2891l0.5086 0.8166c1.356 2.1762 2.7153 4.3585 4.0121 6.5675 0.6574-1.0604 1.3085-2.1247 1.952-3.1929 0.2912-0.4694 0.58-0.9408 0.8688-1.4122 0.5719-0.9337 1.1443-1.8678 1.7355-2.788-0.3683 0.0522-0.8065 0.1278-1.2728 0.2083-1.1573 0.1997-2.4888 0.4295-3.3591 0.4057-0.8175-0.0223-1.6412-0.1692-2.4647-0.3159zM4.5326 21.7039l0.9961 0.1439c0.6678 1.1076 1.347 2.2083 2.0262 3.3091l27e-4 49e-4 0.0181 0.0296c0.952 1.5436 1.904 3.0873 2.8248 4.65-6e-4 0.2434 0 0.4869 22e-4 0.7305 27e-4 0.349 78e-4 0.6981 0.0157 1.047l-1.9856-1.6253-7.4952-6.1138c0.841 0.0117 1.6829 92e-4 2.5245 66e-4 0.3553-11e-4 0.7106-21e-4 1.0657-21e-4 0.0196-0.726 63e-4-1.4538 48e-4-2.1804zM16.4632 21.7368l-0.0372 35e-4-0.6895 0.1062-4.8763 7.9361-0.019 1.8305c0.3142-0.2561 0.6287-0.5114 0.9441-0.7659 0.3946-0.3187 0.7905-0.6362 1.1869-0.9527 2.4677-1.9802 4.9154-3.9846 7.3431-6.0141l-3.6002 39e-4c21e-4-0.1607 88e-4-0.3284 0.0158-0.4993l9e-4-0.0148c0.022-0.5309 0.0453-1.0925-0.0608-1.5761-0.0947-0.0711-0.1068-0.0696-0.1796-0.0607zM4.1065 18.5402 4.105 18.7033 3.584 17.8521c-0.2214-0.407-0.4688-0.806-0.7152-1.2032-0.1098-0.1772-0.2193-0.354-0.3263-0.531 0.3042-0.571 0.6383-1.1294 0.9722-1.6871L3.77 14.0039c0.084-0.1417 0.1678-0.2836 0.2503-0.4257 0.1745 0.2655 0.1225 3.0062 0.0959 4.407-42e-4 0.2248-79e-4 0.415-97e-4 0.555zM16.237 21.2554l0.0904-0.1614c0.1591-0.2851 0.3191-0.5716 0.5253-0.8255 0.0185 0.2623-9e-4 0.6193-0.0481 0.8341-0.2585 0.0949-0.3634 0.1285-0.5676 0.1528z" />
  </symbol>

  <symbol id="icon-star-outline" viewBox="0 0 24 24">
    <path fill="none" stroke="currentColor" stroke-width="2" d="M12 1c0.0375 0 0.0716 0.0106 0.0986 0.0283 0.0231 0.0153 0.0582 0.0468 0.0869 0.1192l2.4346 6.123c0.3072 0.7721 1.0166 1.3293 1.8643 1.4004l6.3193 0.5303c0.0492 41e-4 0.0782 0.0198 0.1016 0.04 0.0283 0.0246 0.0601 0.0678 0.0791 0.1289 0.0391 0.1259 61e-4 0.2358-0.0752 0.3086l-4.8145 4.3135c-0.6221 0.5576-0.8808 1.4149-0.6972 2.2197l1.4716 6.4502c0.032 0.1403-0.021 0.2401-0.0957 0.2969-0.0381 0.0289-0.0735 0.0393-0.0976 0.041-0.0179 12e-4-0.0485-8e-4-0.0977-0.0322l-5.4101-3.4561c-0.7148-0.4567-1.6212-0.4567-2.336 0l-5.4101 3.4561C5.3727 22.9992 5.3421 23.0012 5.3242 23c-0.0241-17e-4-0.0595-0.0121-0.0976-0.041-0.0747-0.0568-0.1277-0.1566-0.0957-0.2969l1.4716-6.4502c0.1836-0.8047-0.075-1.6621-0.6972-2.2197L1.0908 9.6787C1.0095 9.6059 0.9765 9.496 1.0156 9.3701 1.0346 9.309 1.0664 9.2658 1.0947 9.2412 1.1181 9.221 1.147 9.2053 1.1963 9.2012l6.3193-0.5303c0.8477-0.0711 1.5571-0.6281 1.8643-1.4004l2.4346-6.123c0.0287-0.0724 0.0638-0.1039 0.0869-0.1192C11.9284 1.0106 11.9625 1 12 1z" />
  </symbol>

  <symbol id="icon-facebook" viewBox="0 0 20 20">
    <path d="M20 10.0611C20 4.5045 15.5229 0 10 0 4.4772 0 0 4.5045 0 10.0611 0 15.0828 3.6568 19.2452 8.4375 20v-7.0306H5.8984l0-2.9083h2.5391V7.8445c0-2.5215 1.493-3.9144 3.7771-3.9144 1.0942 0 2.2385 0.1965 2.2385 0.1965v2.476l-1.2609 0c-1.2422 0-1.6297 0.7756-1.6297 1.5713v1.8872h2.7734l-0.4433 2.9083h-2.3301V20C16.3432 19.2452 20 15.083 20 10.0611z" />
  </symbol>

  <symbol id="icon-location" viewBox="0 0 16 20">
    <path d="M8.0001 12c2.206 0 4-1.794 4-4s-1.794-4-4-4c-2.206 0-4 1.794-4 4 0 2.206 1.794 4 4 4zM8.0001 6c1.103 0 2 0.897 2 2s-0.897 2-2 2c-1.103 0-2-0.897-2-2 0-1.103 0.897-2 2-2z" />
    <path d="M7.4201 19.814c0.1692 0.1209 0.372 0.1858 0.58 0.1858 0.208 0 0.4107-0.0649 0.58-0.1858 0.304-0.215 7.449-5.374 7.42-11.814 0-4.411-3.589-8-8-8-4.411 0-8 3.589-8 7.995-0.029 6.445 7.116 11.604 7.42 11.819zM8.0001 2c3.309 0 6 2.691 6 6.005 0.021 4.438-4.388 8.423-6 9.73-1.611-1.308-6.021-5.294-6-9.735 0-3.309 2.691-6 6-6z" />
  </symbol>

  <symbol id="icon-instagram" viewBox="0 0 24 24">
    <path d="M11.9988 4.6209c2.4044 0 2.689 0.0107 3.6344 0.0529 0.8791 0.0388 1.3532 0.1861 1.6698 0.3093 0.4185 0.162 0.7205 0.3588 1.0332 0.6715 0.3166 0.3167 0.5096 0.6153 0.6749 1.0338 0.1232 0.3166 0.2705 0.7941 0.3093 1.6698 0.0422 0.9494 0.0529 1.234 0.0529 3.635 0 2.401-0.0107 2.6889-0.0529 3.6349-0.0388 0.8791-0.1861 1.3532-0.3093 1.6699-0.162 0.4184-0.3583 0.7204-0.6715 1.0331-0.3167 0.3167-0.6153 0.5096-1.0332 0.675-0.3166 0.1231-0.7947 0.2705-1.6698 0.3093-0.9494 0.0422-1.234 0.0529-3.635 0.0529-2.401 0-2.6889-0.0107-3.6349-0.0529-0.8791-0.0388-1.3532-0.1862-1.6699-0.3093-0.4184-0.162-0.7205-0.3583-1.0337-0.6716-0.3167-0.3166-0.5096-0.6153-0.6749-1.0332-0.1232-0.3166-0.2706-0.7947-0.3094-1.6698-0.0421-0.9494-0.0528-1.234-0.0528-3.635 0-2.4009 0.0107-2.6889 0.0528-3.6349 0.0388-0.8791 0.1862-1.3532 0.3094-1.6698C5.1502 6.2733 5.347 5.9713 5.6597 5.658 5.9764 5.3414 6.275 5.1485 6.6934 4.9831 7.0101 4.8599 7.4876 4.7126 8.3633 4.6738c0.9454-0.0422 1.2306-0.0529 3.6349-0.0529zM11.9988 3.0006c-2.4432 0-2.7486 0.0107-3.7086 0.0528-0.9561 0.0422-1.6136 0.1969-2.1828 0.4185-0.5939 0.2317-1.0967 0.5377-1.5956 1.0405C4.009 5.0118 3.703 5.514 3.4713 6.1046 3.2497 6.6777 3.0951 7.3312 3.0529 8.2874 3.0107 9.2508 3 9.5562 3 11.9994c0 2.4431 0.0107 2.7485 0.0529 3.7086 0.0421 0.9561 0.1968 1.6136 0.4184 2.1828 0.2323 0.5939 0.5377 1.0967 1.0405 1.5956 0.4989 0.4988 1.0017 0.8087 1.5922 1.0371 0.5731 0.2216 1.2267 0.3762 2.1828 0.4184 0.9595 0.0422 1.2655 0.0529 3.7086 0.0529 2.4432 0 2.7492-0.0107 3.7087-0.0529 0.9561-0.0422 1.6136-0.1968 2.1827-0.4184 0.5906-0.2284 1.0934-0.5377 1.5923-1.0371 0.4988-0.4995 0.8087-1.0017 1.0371-1.5923 0.2216-0.5731 0.3762-1.2266 0.4184-2.1827 0.0422-0.9595 0.0529-1.2655 0.0529-3.7087 0-2.4431-0.0107-2.7485-0.0529-3.7086-0.0422-0.9561-0.1968-1.6136-0.4184-2.1828-0.2216-0.5978-0.5276-1.1001-1.0298-1.5995-0.4989-0.4989-1.0017-0.8088-1.5923-1.0371-0.5731-0.2216-1.2266-0.3763-2.1827-0.4185C14.7485 3.0107 14.4425 3 11.9994 3z" />
    <path d="M11.9985 7.3767c-2.5517 0-4.6225 2.0703-4.6225 4.6226 0 2.5523 2.0703 4.6226 4.6225 4.6226 2.5523 0 4.6226-2.0703 4.6226-4.6226 0-2.5517-2.0703-4.6226-4.6226-4.6226zM11.9985 14.9976c-1.6557 0-2.9982-1.3425-2.9982-2.9983 0-1.6558 1.3425-2.9983 2.9982-2.9983 1.6558 0 2.9983 1.3425 2.9983 2.9983s-1.3425 2.9983-2.9983 2.9983z" />
    <path d="M17.8822 7.194c0 0.5962-0.4831 1.0793-1.0793 1.0793-0.5961 0-1.0793-0.4831-1.0793-1.0793 0-0.5961 0.4832-1.0793 1.0793-1.0793 0.5962 0 1.0793 0.4832 1.0793 1.0793z" />
  </symbol>

  <symbol id="icon-hand-heart" viewBox="0 0 20 19">
  <path fill="currentColor" d="M2 19h9.62c0.5771 3e-4 1.1474-0.1244 1.6716-0.3656 0.5243-0.2411 0.9901-0.593 1.3654-1.0314l5.102-5.952c0.1068-0.1244 0.1814-0.2732 0.2172-0.4332 0.0358-0.1601 0.0317-0.3265-0.012-0.4845-0.0436-0.1581-0.1255-0.303-0.2384-0.422s-0.2532-0.2084-0.4088-0.2603l-1.968-0.656c-0.4756-0.1546-0.9821-0.1896-1.4745-0.1018-0.4924 0.0877-0.9555 0.2954-1.3485 0.6048l-3.185 2.547-0.617-1.235c-0.3305-0.6657-0.8409-1.2256-1.4733-1.6162C8.6184 9.2033 7.8893 8.9975 7.146 9L2 9c-1.103 0-2 0.897-2 2v6c0 1.103 0.897 2 2 2zM2 11h5.146c0.763 0 1.448 0.423 1.789 1.105L9.382 13H5v2h6.014c0.1539-2e-3 0.3051-0.0397 0.442-0.11l3e-3-1e-3 4e-3-2e-3h3e-3l2e-3-1e-3h4e-3l1e-3-1e-3c9e-3 3e-3 3e-3-1e-3 3e-3-1e-3 0.01 0 2e-3-1e-3 2e-3-1e-3h1e-3l2e-3-1e-3 3e-3-1e-3 4e-3-2e-3 3e-3-1e-3 2e-3-1e-3c3e-3 0 2e-3-1e-3 2e-3-1e-3l3e-3-2e-3 4e-3-2e-3 3e-3-1e-3 2e-3-1e-3h1e-3l2e-3-1e-3 3e-3-1e-3 2e-3-1e-3c9e-3-1e-3 3e-3-1e-3 3e-3-1e-3l2e-3-1e-3c0.0385-0.0232 0.0753-0.0493 0.11-0.078l4.146-3.317c0.262-0.208 0.623-0.273 0.94-0.167l0.557 0.186-4.133 4.823c-0.1901 0.2159-0.424 0.3889-0.686 0.5075-0.2621 0.1186-0.5463 0.1801-0.834 0.1805H2zM13.983 0C13.82 2e-3 12.977 0.039 12 0.705c-0.951-0.648-1.774-0.7-1.968-0.704L10.002 0 9.998 0C9.197 0 8.443 0.313 7.879 0.878 7.313 1.445 7 2.198 7 3 7 3.802 7.313 4.555 7.861 5.104l3.414 3.586c0.0939 0.0975 0.2066 0.1751 0.3312 0.228 0.1246 0.0529 0.2586 0.0802 0.394 0.0801 0.1354-1e-4 0.2694-0.0275 0.3939-0.0806 0.1246-0.0532 0.2371-0.1309 0.3309-0.2285l3.396-3.568C16.688 4.555 17 3.802 17 3c0-0.802-0.313-1.555-0.878-2.121-0.2777-0.2794-0.608-0.501-0.9719-0.6519C14.7862 0.0762 14.3959-1e-3 14.002 0zM15 3c0 0.267-0.104 0.518-0.311 0.725L12 6.55 9.293 3.707C9.104 3.518 9 3.267 9 3 9 2.733 9.104 2.482 9.294 2.292 9.4748 2.1081 9.7211 2.0031 9.979 2c0.025 1e-3 0.502 0.032 1.067 0.485 0.081 0.065 0.163 0.139 0.247 0.222L12 3.414l0.707-0.707c0.084-0.083 0.166-0.157 0.247-0.222 0.529-0.425 0.976-0.478 1.052-0.484 0.1303 0 0.2594 0.0258 0.3797 0.0759s0.2295 0.1236 0.3213 0.2161C14.896 2.482 15 2.733 15 3z" />
  </symbol>

  <symbol id="icon-linkedin" viewBox="0 0 18 18">
    <path d="M16.3125 0H1.6875C0.7594 0 0 0.7594 0 1.6875v14.625C0 17.2406 0.7594 18 1.6875 18h14.625C17.2406 18 18 17.2406 18 16.3125V1.6875C18 0.7594 17.2406 0 16.3125 0zM6.75 14.625H4.5V6.75h2.25zM5.625 5.625C5.0029 5.625 4.5 5.1221 4.5 4.5c0-0.6221 0.5029-1.125 1.125-1.125S6.75 3.8779 6.75 4.5c0 0.6221-0.5029 1.125-1.125 1.125zM14.625 14.625h-2.25v-4.5C12.375 9.5029 11.8721 9 11.25 9s-1.125 0.5029-1.125 1.125v4.5h-2.25V6.75h2.25v1.3956C10.5891 7.5094 11.2989 6.75 12.0938 6.75c1.3994 0 2.5312 1.2589 2.5312 2.8125z" />
  </symbol>

  <symbol id="icon-leaf" viewBox="0 0 19 20">
  <path fill="currentColor" d="M18.7235 0l-1.2 0.4c-2.0566 0.7145-4.2527 0.9338-6.41 0.64-2.2669-0.3518-4.5871-0.0392-6.68 0.9C3.324 2.4125 2.3503 3.1549 1.601 4.0998 0.8517 5.0447 0.3507 6.162 0.1435 7.35c-0.2107 1.1424-0.1892 2.3156 0.0634 3.4496 0.2525 1.1339 0.7309 2.2054 1.4066 3.1504-0.06 0.21-0.12 0.42-0.17 0.63-0.4062 1.727-0.6075 3.4959-0.6 5.27h2c0.094-1.4522 0.2912-2.8958 0.59-4.32 1.3874 0.7492 2.9433 1.1313 4.52 1.11 1.4705-1e-3 2.9258-0.2968 4.28-0.87 7.61-3.25 6.61-14.06 6.61-14.51zM11.4535 13.93c-2.61 1.11-5.73 0.92-7.48-0.45 0.2958-0.989 0.7017-1.9416 1.21-2.84 0.3952-0.6466 0.8614-1.247 1.39-1.79 0.5401-0.5488 1.1484-1.026 1.81-1.42 1.3671-0.8175 2.8832-1.3546 4.46-1.58v-1c-1.8142-0.0628-3.6173 0.3074-5.26 1.08-1.6796 0.8195-3.104 2.0814-4.12 3.65-0.3768 0.5991-0.711 1.224-1 1.87C2 10.2644 1.8686 8.9748 2.0835 7.72 2.2243 6.8415 2.5864 6.0134 3.1357 5.3136 3.6851 4.6138 4.4036 4.0653 5.2235 3.72c1.1956-0.5588 2.5002-0.8457 3.82-0.84 0.62 0 1.23 0.06 1.87 0.11 2.0043 0.2586 4.0393 0.1399 6-0.35-0.07 2.76-0.57 9.21-5.46 11.29z" />
  </symbol>

  <symbol id="icon-email" viewBox="0 0 20 16">
    <path d="M18 0H2C0.897 0 0 0.897 0 2v12c0 1.103 0.897 2 2 2h16c1.103 0 2-0.897 2-2V2c0-1.103-0.897-2-2-2zM18 2v0.511l-8 6.223-8-6.222V2zM2 14V5.044l7.386 5.745c0.1751 0.1375 0.3913 0.2123 0.614 0.2123 0.2227 0 0.4389-0.0748 0.614-0.2123L18 5.044 18.002 14z" />
  </symbol>

  <symbol id="icon-menu" viewBox="0 0 16 12">
    <path d="M0 0h16v2H0zM0 5h16v2H0zM0 10h16v2H0z" />
  </symbol>

  <symbol id="icon-phone" viewBox="0 0 19 19">
    <path d="M14.7122 10.2932c-0.0928-0.0929-0.203-0.1667-0.3243-0.217S14.1365 10 14.0052 10s-0.2614 0.0259-0.3827 0.0762-0.2315 0.1241-0.3243 0.217l-1.594 1.594c-0.739-0.22-2.118-0.72-2.992-1.594-0.874-0.874-1.374-2.253-1.594-2.992l1.594-1.594c0.093-0.0928 0.1667-0.203 0.217-0.3243 0.0503-0.1213 0.0762-0.2514 0.0762-0.3827 0-0.1313-0.0259-0.2614-0.0762-0.3827-0.0503-0.1213-0.124-0.2315-0.217-0.3243l-4-4c-0.0928-0.0929-0.203-0.1667-0.3243-0.217C4.2666 0.0259 4.1366 0 4.0052 0 3.8739 0 3.7438 0.0259 3.6225 0.0762 3.5012 0.1265 3.391 0.2003 3.2982 0.2932l-2.712 2.712c-0.38 0.38-0.594 0.902-0.586 1.435 0.023 1.424 0.4 6.37 4.298 10.268 3.898 3.898 8.844 4.274 10.269 4.298h0.028c0.528 0 1.027-0.208 1.405-0.586l2.712-2.712c0.093-0.0928 0.1667-0.203 0.217-0.3243s0.0762-0.2514 0.0762-0.3827-0.0259-0.2614-0.0762-0.3827-0.124-0.2315-0.217-0.3243zM14.5852 17.0052c-1.248-0.021-5.518-0.356-8.873-3.712-3.366-3.366-3.692-7.651-3.712-8.874l2.005-2.005 2.586 2.586-1.293 1.293C5.1807 6.4107 5.0943 6.5555 5.0468 6.7148 4.9993 6.874 4.9922 7.0426 5.0262 7.2052c0.024 0.115 0.611 2.842 2.271 4.502 1.66 1.66 4.387 2.247 4.502 2.271 0.1626 0.035 0.3313 0.0285 0.4907-0.0189 0.1593-0.0474 0.3042-0.1341 0.4213-0.2521l1.294-1.293 2.586 2.586z" />
  </symbol>

  <symbol id="icon-star-filled" viewBox="0 0 24 24">
    <path d="M10.8851 0.778c0.4125-1.0373 1.8174-1.0373 2.2299 0l2.4345 6.1229c0.174 0.4373 0.5672 0.7361 1.0185 0.774l6.3193 0.5299c1.0706 0.0898 1.5048 1.4874 0.689 2.2183l-4.8145 4.314c-0.3439 0.3082-0.4942 0.7917-0.3891 1.2524l1.4709 6.4503c0.2492 1.0929-0.8873 1.9567-1.804 1.3711l-5.4101-3.4567c-0.3865-0.2469-0.8725-0.2469-1.2589 0l-5.4102 3.4567c-0.9167 0.5856-2.0532-0.2782-1.804-1.3711l1.4709-6.4503c0.1051-0.4607-0.0451-0.9442-0.389-1.2524l-4.8146-4.314c-0.8158-0.7309-0.3816-2.1285 0.689-2.2183l6.3193-0.53c0.4514-0.0378 0.8446-0.3366 1.0185-0.774z" />
  </symbol>

  <symbol id="icon-x" viewBox="0 0 18 16">
    <path d="M14.1761 0h2.7601l-6.0301 6.7774L18 16h-5.5544l-4.3505-5.5934L3.1172 16H0.3554l6.4498-7.2492L0 0h5.6955l3.9324 5.1126zM13.2073 14.3754h1.5295L4.8644 1.5393l-1.6412 0z" />
  </symbol>

  <symbol id="icon-close" viewBox="0 0 12 12">
    <path d="M9.899 0 5.656 4.242 1.414 0 0 1.414 4.242 5.656 0 9.898l1.414 1.414 4.242-4.242 4.243 4.242 1.414-1.414-4.242-4.242 4.242-4.242z" />
  </symbol>

  <symbol id="icon-youtube" viewBox="0 0 21 15">
    <path d="M19.607 2.203c-0.1139-0.4226-0.3365-0.808-0.6456-1.1178-0.3092-0.3099-0.6941-0.5333-1.1164-0.6482C16.279 7e-3 10.014 0 10.014 0c0 0-6.264-7e-3-7.831 0.404-0.4221 0.1202-0.8062 0.3468-1.1154 0.6581C0.7583 1.3735 0.5343 1.7591 0.417 2.182 4e-3 3.748 0 6.996 0 6.996c0 0-4e-3 3.264 0.406 4.814 0.23 0.857 0.905 1.534 1.763 1.765 1.582 0.43 7.83 0.437 7.83 0.437s6.265 7e-3 7.831-0.403c0.4225-0.1147 0.8077-0.3376 1.1177-0.6468 0.3099-0.3092 0.5337-0.694 0.6493-1.1162 0.414-1.565 0.417-4.812 0.417-4.812 0 0 0.02-3.265-0.407-4.831zM8.01 10.005l5e-3-6 5.207 3.005z" />
  </symbol>
  </defs>
</svg>
